<mxfile host="app.diagrams.net" agent="Mozilla/5.0 (Windows NT 10.0; Win64; x64) AppleWebKit/537.36 (KHTML, like Gecko) Chrome/131.0.0.0 Safari/537.36" version="24.9.3">
  <diagram name="Page-1" id="e56a1550-8fbb-45ad-956c-1786394a9013">
    <mxGraphModel dx="1134" dy="654" grid="1" gridSize="10" guides="1" tooltips="1" connect="1" arrows="1" fold="1" page="1" pageScale="1" pageWidth="1100" pageHeight="850" background="none" math="0" shadow="0">
      <root>
        <mxCell id="0" />
        <mxCell id="1" parent="0" />
        <mxCell id="9iuluMPdRDl-9UrmXmha-1" value="&lt;div style=&quot;box-sizing: border-box ; width: 100% ; background: #e4e4e4 ; padding: 2px&quot;&gt;country&lt;/div&gt;&lt;table style=&quot;width: 100% ; font-size: 1em&quot; cellpadding=&quot;2&quot; cellspacing=&quot;0&quot;&gt;&lt;tbody&gt;&lt;tr&gt;&lt;td&gt;PK&lt;/td&gt;&lt;td&gt;Name&lt;/td&gt;&lt;/tr&gt;&lt;tr&gt;&lt;td&gt;&lt;br&gt;&lt;/td&gt;&lt;td&gt;Continent&lt;/td&gt;&lt;/tr&gt;&lt;tr&gt;&lt;td&gt;&lt;/td&gt;&lt;td&gt;Regoin&lt;/td&gt;&lt;/tr&gt;&lt;tr&gt;&lt;td&gt;&lt;br&gt;&lt;/td&gt;&lt;td&gt;SurfaceArea&lt;/td&gt;&lt;/tr&gt;&lt;tr&gt;&lt;td&gt;&lt;br&gt;&lt;/td&gt;&lt;td&gt;IndepYear&lt;/td&gt;&lt;/tr&gt;&lt;tr&gt;&lt;td&gt;&lt;br&gt;&lt;/td&gt;&lt;td&gt;Population&lt;/td&gt;&lt;/tr&gt;&lt;tr&gt;&lt;td&gt;&lt;br&gt;&lt;/td&gt;&lt;td&gt;LifeExpectancy&lt;/td&gt;&lt;/tr&gt;&lt;tr&gt;&lt;td&gt;&lt;br&gt;&lt;/td&gt;&lt;td&gt;GNP&lt;/td&gt;&lt;/tr&gt;&lt;tr&gt;&lt;td&gt;&lt;br&gt;&lt;/td&gt;&lt;td&gt;GNPOld&lt;br&gt;LocalName&lt;br&gt;GovernmentName&lt;br&gt;HeadOfState&lt;br&gt;Capitol&lt;br&gt;Code2&lt;/td&gt;&lt;/tr&gt;&lt;/tbody&gt;&lt;/table&gt;" style="verticalAlign=top;align=left;overflow=fill;html=1;" vertex="1" parent="1">
          <mxGeometry x="460" y="295" width="180" height="260" as="geometry" />
        </mxCell>
        <mxCell id="9iuluMPdRDl-9UrmXmha-2" value="&lt;div style=&quot;box-sizing: border-box ; width: 100% ; background: #e4e4e4 ; padding: 2px&quot;&gt;city&lt;/div&gt;&lt;table style=&quot;width: 100% ; font-size: 1em&quot; cellpadding=&quot;2&quot; cellspacing=&quot;0&quot;&gt;&lt;tbody&gt;&lt;tr&gt;&lt;td&gt;PK&lt;/td&gt;&lt;td&gt;ID&lt;/td&gt;&lt;/tr&gt;&lt;tr&gt;&lt;td&gt;FK&lt;/td&gt;&lt;td&gt;CountryCode&lt;/td&gt;&lt;/tr&gt;&lt;tr&gt;&lt;td&gt;&lt;/td&gt;&lt;td&gt;Name&lt;/td&gt;&lt;/tr&gt;&lt;tr&gt;&lt;td&gt;&lt;br&gt;&lt;/td&gt;&lt;td&gt;District&lt;/td&gt;&lt;/tr&gt;&lt;tr&gt;&lt;td&gt;&lt;br&gt;&lt;/td&gt;&lt;td&gt;Population&lt;/td&gt;&lt;/tr&gt;&lt;/tbody&gt;&lt;/table&gt;" style="verticalAlign=top;align=left;overflow=fill;html=1;" vertex="1" parent="1">
          <mxGeometry x="850" y="342.5" width="180" height="120" as="geometry" />
        </mxCell>
        <mxCell id="9iuluMPdRDl-9UrmXmha-3" value="&lt;div style=&quot;box-sizing: border-box ; width: 100% ; background: #e4e4e4 ; padding: 2px&quot;&gt;countrylanguage&lt;/div&gt;&lt;table style=&quot;width: 100% ; font-size: 1em&quot; cellpadding=&quot;2&quot; cellspacing=&quot;0&quot;&gt;&lt;tbody&gt;&lt;tr&gt;&lt;td&gt;PK&lt;/td&gt;&lt;td&gt;CountryCode&lt;/td&gt;&lt;/tr&gt;&lt;tr&gt;&lt;td&gt;PK&lt;/td&gt;&lt;td&gt;Language&lt;/td&gt;&lt;/tr&gt;&lt;tr&gt;&lt;td&gt;&lt;/td&gt;&lt;td&gt;IsOffical&lt;/td&gt;&lt;/tr&gt;&lt;tr&gt;&lt;td&gt;&lt;br&gt;&lt;/td&gt;&lt;td&gt;Percentage&lt;/td&gt;&lt;/tr&gt;&lt;tr&gt;&lt;td&gt;&lt;br&gt;&lt;/td&gt;&lt;td&gt;&lt;br&gt;&lt;/td&gt;&lt;/tr&gt;&lt;/tbody&gt;&lt;/table&gt;" style="verticalAlign=top;align=left;overflow=fill;html=1;" vertex="1" parent="1">
          <mxGeometry x="70" y="342.5" width="180" height="95" as="geometry" />
        </mxCell>
        <mxCell id="9iuluMPdRDl-9UrmXmha-4" value="" style="endArrow=none;html=1;rounded=0;exitX=1;exitY=0.5;exitDx=0;exitDy=0;entryX=-0.011;entryY=0.366;entryDx=0;entryDy=0;entryPerimeter=0;" edge="1" parent="1" source="9iuluMPdRDl-9UrmXmha-3" target="9iuluMPdRDl-9UrmXmha-1">
          <mxGeometry width="50" height="50" relative="1" as="geometry">
            <mxPoint x="440" y="460" as="sourcePoint" />
            <mxPoint x="490" y="410" as="targetPoint" />
          </mxGeometry>
        </mxCell>
        <mxCell id="9iuluMPdRDl-9UrmXmha-5" value="" style="endArrow=none;html=1;rounded=0;exitX=1;exitY=0.5;exitDx=0;exitDy=0;entryX=-0.011;entryY=0.366;entryDx=0;entryDy=0;entryPerimeter=0;" edge="1" parent="1">
          <mxGeometry width="50" height="50" relative="1" as="geometry">
            <mxPoint x="640" y="389.55" as="sourcePoint" />
            <mxPoint x="848" y="389.55" as="targetPoint" />
          </mxGeometry>
        </mxCell>
        <mxCell id="9iuluMPdRDl-9UrmXmha-7" value="Speaks&amp;nbsp; &amp;nbsp;&lt;sup&gt;▶&lt;/sup&gt;" style="text;html=1;align=center;verticalAlign=middle;whiteSpace=wrap;rounded=0;" vertex="1" parent="1">
          <mxGeometry x="304" y="371" width="90" height="20" as="geometry" />
        </mxCell>
        <mxCell id="9iuluMPdRDl-9UrmXmha-12" value="◀&amp;nbsp; &amp;nbsp;is_apart_of" style="text;html=1;align=center;verticalAlign=middle;whiteSpace=wrap;rounded=0;" vertex="1" parent="1">
          <mxGeometry x="700" y="372" width="90" height="20" as="geometry" />
        </mxCell>
        <mxCell id="9iuluMPdRDl-9UrmXmha-13" value="0..*&lt;span style=&quot;white-space: pre;&quot;&gt;&#x9;&lt;/span&gt;&lt;span style=&quot;white-space: pre;&quot;&gt;&#x9;&lt;/span&gt;&lt;span style=&quot;white-space: pre;&quot;&gt;&#x9;&lt;/span&gt;&lt;span style=&quot;white-space: pre;&quot;&gt;&#x9;&lt;/span&gt;&lt;span style=&quot;white-space: pre;&quot;&gt;&#x9;&lt;/span&gt;&amp;nbsp; &amp;nbsp;&lt;span style=&quot;white-space: pre;&quot;&gt;&#x9;&lt;/span&gt;&amp;nbsp; &amp;nbsp; &amp;nbsp; &amp;nbsp;0..*" style="text;html=1;align=center;verticalAlign=middle;whiteSpace=wrap;rounded=0;" vertex="1" parent="1">
          <mxGeometry x="227" y="386" width="257" height="30" as="geometry" />
        </mxCell>
        <mxCell id="9iuluMPdRDl-9UrmXmha-14" value="1..1&lt;span style=&quot;white-space: pre;&quot;&gt;&#x9;&lt;/span&gt;&lt;span style=&quot;white-space: pre;&quot;&gt;&#x9;&lt;/span&gt;&lt;span style=&quot;white-space: pre;&quot;&gt;&#x9;&lt;/span&gt;&lt;span style=&quot;white-space: pre;&quot;&gt;&#x9;&lt;/span&gt;&lt;span style=&quot;white-space: pre;&quot;&gt;&#x9;&lt;/span&gt;&amp;nbsp; &amp;nbsp;&lt;span style=&quot;white-space: pre;&quot;&gt;&#x9;&lt;/span&gt;&amp;nbsp; &amp;nbsp; &amp;nbsp; &amp;nbsp;0..*" style="text;html=1;align=center;verticalAlign=middle;whiteSpace=wrap;rounded=0;" vertex="1" parent="1">
          <mxGeometry x="617" y="386" width="257" height="30" as="geometry" />
        </mxCell>
      </root>
    </mxGraphModel>
  </diagram>
</mxfile>
